{"accessors":[{"bufferView":0,"componentType":5123,"count":1272,"max":[839],"min":[0],"type":"SCALAR"},{"bufferView":1,"componentType":5126,"count":840,"max":[0.12226905673742294,1.7159321308135986,0.0941680371761322],"min":[-0.12226905673742294,0.8665469288825989,-0.0821426510810852],"type":"VEC3"},{"bufferView":2,"componentType":5126,"count":840,"max":[0.9999858140945435,1.0,1.0],"min":[-0.9999858140945435,-1.0,-1.0],"type":"VEC3"},{"bufferView":3,"componentType":5123,"count":840,"max":[4,0,0,0],"min":[2,0,0,0],"type":"VEC4"},{"bufferView":4,"componentType":5126,"count":840,"max":[1.0,0.0,0.0,0.0],"min":[1.0,0.0,0.0,0.0],"type":"VEC4"},{"bufferView":5,"componentType":5123,"count":1944,"max":[1255],"min":[0],"type":"SCALAR"},{"bufferView":6,"componentType":5126,"count":1256,"max":[-0.008591271005570889,1.3923746347427368,0.13412776589393616],"min":[-0.7754157781600952,0.0005139007116667926,-0.05802936479449272],"type":"VEC3"},{"bufferView":7,"componentType":5126,"count":1256,"max":[1.0,1.0,1.0],"min":[-1.0,-1.0,-1.0],"type":"VEC3"},{"bufferView":8,"componentType":5123,"count":1256,"max":[21,21,0,0],"min":[8,0,0,0],"type":"VEC4"},{"bufferView":9,"componentType":5126,"count":1256,"max":[1.0,0.5,0.0,0.0],"min":[1.0,0.0,0.0,0.0],"type":"VEC4"},{"bufferView":10,"componentType":5123,"count":1944,"max":[1255],"min":[0],"type":"SCALAR"},{"bufferView":11,"componentType":5126,"count":1256,"max":[0.7754157781600952,1.3923746347427368,0.13412776589393616],"min":[0.008591271005570889,0.0005139007116667926,-0.05802936479449272],"type":"VEC3"},{"bufferView":12,"componentType":5126,"count":1256,"max":[1.0,1.0,1.0],"min":[-1.0,-1.0,-1.0],"type":"VEC3"},{"bufferView":13,"componentType":5123,"count":1256,"max":[15,15,0,0],"min":[5,0,0,0],"type":"VEC4"},{"bufferView":14,"componentType":5126,"count":1256,"max":[1.0,0.5,0.0,0.0],"min":[1.0,0.0,0.0,0.0],"type":"VEC4"},{"bufferView":15,"componentType":5126,"count":22,"max":[1.0,0.999995768070221,6.277915076680074e-07,0.0,0.999995768070221,1.0,1.0000003576278687,0.0,3.718170660249598e-07,1.0007516145706177,1.000677227973938,0.0,1.3881579637527466,0.8449172973632812,0.022290358319878578,1.0],"min":[-1.0,-0.999995768070221,-5.453926519294328e-07,0.0,-0.999995768070221,-0.9999257326126099,-0.036683034151792526,0.0,-2.0394155342273734e-07,-1.0,-2.9824732905581186e-08,0.0,-1.3881579637527466,-1.4315634965896606,-0.5001195669174194,1.0],"type":"MAT4"}],"asset":{"generator":"Khronos Blender glTF 2.0 exporter","version":"2.0"},"bufferViews":[{"buffer":0,"byteLength":2544,"byteOffset":0,"target":34963},{"buffer":0,"byteLength":10080,"byteOffset":2544,"target":34962},{"buffer":0,"byteLength":10080,"byteOffset":12624,"target":34962},{"buffer":0,"byteLength":6720,"byteOffset":22704,"target":34962},{"buffer":0,"byteLength":13440,"byteOffset":29424,"target":34962},{"buffer":0,"byteLength":3888,"byteOffset":42864,"target":34963},{"buffer":0,"byteLength":15072,"byteOffset":46752,"target":34962},{"buffer":0,"byteLength":15072,"byteOffset":61824,"target":34962},{"buffer":0,"byteLength":10048,"byteOffset":76896,"target":34962},{"buffer":0,"byteLength":20096,"byteOffset":86944,"target":34962},{"buffer":0,"byteLength":3888,"byteOffset":107040,"target":34963},{"buffer":0,"byteLength":15072,"byteOffset":110928,"target":34962},{"buffer":0,"byteLength":15072,"byteOffset":126000,"target":34962},{"buffer":0,"byteLength":10048,"byteOffset":141072,"target":34962},{"buffer":0,"byteLength":20096,"byteOffset":151120,"target":34962},{"buffer":0,"byteLength":1408,"byteOffset":171216}],"buffers":[{"byteLength":172624,"uri":"data:application/octet-stream;base64,"}],"materials":[{"name":"Material","pbrMetallicRoughness":{"baseColorFactor":[0.8000000715255737,0.12175381183624268,0.03985325247049332,1.0],"metallicFactor":0.0}},{"name":"Material.001","pbrMetallicRoughness":{"baseColorFactor":[0.09022139757871628,0.22971874475479126,0.8000000715255737,1.0],"metallicFactor":0.0}},{"name":"Material.002","pbrMetallicRoughness":{"baseColorFactor":[0.04700527340173721,0.538224458694458,0.016323154792189598,1.0],"metallicFactor":0.0}}],"meshes":[{"name":"Cube","primitives":[{"attributes":{"JOINTS_0":3,"NORMAL":2,"POSITION":1,"WEIGHTS_0":4},"indices":0,"material":0},{"attributes":{"JOINTS_0":8,"NORMAL":7,"POSITION":6,"WEIGHTS_0":9},"indices":5,"material":2},{"attributes":{"JOINTS_0":13,"NORMAL":12,"POSITION":11,"WEIGHTS_0":14},"indices":10,"material":1}]}],"nodes":[{"children":[2,4],"name":"Armature"},{"name":"Camera","rotation":[0.48170700669288635,0.3342514932155609,-0.21292175352573395,0.7816000580787659],"scale":[1.0,1.0,0.9999999403953552],"translation":[7.481131553649902,5.34366512298584,6.5076398849487305]},{"mesh":0,"name":"Cube","skin":0},{"name":"Lamp","rotation":[0.16907575726509094,0.7558802962303162,-0.27217137813568115,0.570947527885437],"scale":[1.0,1.0,0.9999999403953552],"translation":[4.076245307922363,5.903861999511719,-1.0054539442062378]},{"children":[6,5,15,20,21],"name":"Armature_Root","rotation":[0.0,0.7071068286895752,0.7071068286895752,0.0]},{"name":"Armature_Leg IK.L","rotation":[0.0,0.0,1.0,0.0],"translation":[-0.07234332710504532,-0.012176692485809326,0.054524779319763184]},{"children":[7,16,22],"name":"Armature_Hip","rotation":[2.7702077076696696e-08,0.7735382318496704,0.6337496638298035,3.3812426636359305e-08],"scale":[1.0,0.9999999403953552,0.9999999403953552],"translation":[0.0,0.0,0.7844812870025635]},{"children":[8,9,12],"name":"Armature_Spine","rotation":[0.0,4.371138828673793e-08,0.0,1.0],"translation":[0.0,0.24381786584854126,0.0]},{"name":"Armature_Head","translation":[0.0,0.32455456256866455,0.0]},{"children":[10],"name":"Armature_Upper Arm.L","rotation":[-4.569663758502429e-08,3.359425022608775e-07,-0.9959021806716919,0.09043662250041962],"translation":[0.1206120103597641,0.24680089950561523,-0.022289946675300598]},{"children":[11],"name":"Armature_Lower Arm.L","rotation":[0.02909592166543007,-0.002789295045658946,-0.08540339022874832,0.9959176778793335],"scale":[1.0,0.9999999403953552,0.9999999403953552],"translation":[-1.4749993226814695e-08,0.24579107761383057,1.6193979490708443e-10]},{"name":"Armature_Hand.L","rotation":[-1.4386141167221922e-09,9.929942201836184e-09,-0.026463337242603302,0.9996498823165894],"scale":[1.0,0.9999999403953552,1.0],"translation":[1.1773215646826429e-07,0.25872689485549927,-8.480212088102235e-10]},{"children":[13],"name":"Armature_Upper Arm.R","rotation":[-4.569679745713984e-08,-3.359425022608775e-07,0.9959021806716919,0.09043662250041962],"scale":[0.9999999403953552,0.9999999403953552,1.0],"translation":[-0.1206120103597641,0.24680089950561523,-0.022289946675300598]},{"children":[14],"name":"Armature_Lower Arm.R","rotation":[0.6942102313041687,-0.012399639934301376,0.21778635680675507,0.6859209537506104],"translation":[1.4749993226814695e-08,0.24579107761383057,1.6193979490708443e-10]},{"name":"Armature_Hand.R","rotation":[-1.4386141167221922e-09,-9.929942201836184e-09,0.026463337242603302,0.9996498823165894],"scale":[1.0,0.9999999403953552,1.0],"translation":[-1.1773215646826429e-07,0.25872689485549927,-8.480212088102235e-10]},{"name":"Armature_Pole Target.L","rotation":[3.090862321641907e-08,0.7071068286895752,0.7071068286895752,3.090862321641907e-08],"translation":[-0.05608302354812622,0.5001195669174194,0.45224085450172424]},{"children":[17],"name":"Armature_Upper Leg.L","rotation":[4.3710574715305484e-08,0.006102514918893576,0.9999814033508301,2.6684970899637506e-10],"scale":[1.0,0.9999998211860657,0.9992486834526062],"translation":[0.05558820068836212,-0.018235623836517334,-0.002016538055613637]},{"children":[18],"name":"Armature_Lower Leg.L","rotation":[-0.024452626705169678,-7.548513991650907e-08,2.379730856816309e-09,0.9997009634971619],"translation":[4.907074746540729e-10,0.385236531496048,3.62532920350489e-13]},{"children":[19],"name":"Armature_Foot.L","rotation":[0.4668775796890259,-0.06413150578737259,0.03101024404168129,0.8814481496810913],"scale":[0.9999999403953552,1.0,1.0],"translation":[1.5845075251874619e-09,0.40549635887145996,7.101750298943443e-10]},{"name":"Armature_Toes.L","rotation":[0.31139031052589417,2.9828964898115373e-07,-9.774407061513557e-08,0.9502822160720825],"translation":[4.438649892080093e-09,0.08583708852529526,2.301511869973183e-09]},{"name":"Armature_Leg IK.R","rotation":[0.0,0.0,1.0,0.0],"translation":[0.06605182588100433,-0.012176692485809326,0.054524779319763184]},{"name":"Armature_Pole Target.R","rotation":[3.090862321641907e-08,0.7071068286895752,0.7071068286895752,3.090862321641907e-08],"translation":[0.05608302354812622,0.5001195669174194,0.45224085450172424]},{"children":[23],"name":"Armature_Upper Leg.R","rotation":[4.3710574715305484e-08,0.006102514918893576,0.9999814033508301,2.6684970899637506e-10],"scale":[1.0,0.9999998211860657,0.9992486834526062],"translation":[-0.05558820068836212,-0.018235623836517334,-0.0020165282767266035]},{"children":[24],"name":"Armature_Lower Leg.R","rotation":[-0.024452626705169678,-7.548513991650907e-08,2.379730856816309e-09,0.9997009634971619],"translation":[4.907074746540729e-10,0.385236531496048,-3.62532920350489e-13]},{"children":[25],"name":"Armature_Foot.R","rotation":[0.4677846133708954,0.03125299885869026,-0.015112511813640594,0.8831604719161987],"scale":[0.9999999403953552,0.9999999403953552,1.0],"translation":[-2.1407828842967547e-09,0.40549635887145996,6.868088320288734e-10]},{"name":"Armature_Toes.R","rotation":[0.31139031052589417,2.9828964898115373e-07,-9.774407061513557e-08,0.9502822160720825],"translation":[-3.011930704843735e-09,0.08583708107471466,-4.388667207422259e-10]}],"scene":0,"scenes":[{"name":"Untitled","nodes":[0,3,1]}],"skins":[{"inverseBindMatrices":15,"joints":[4,5,6,7,8,9,10,11,12,13,14,15,16,17,18,19,20,21,22,23,24,25],"skeleton":0}]}
