{
  "accessors": [
    {
      "bufferView": 2,
      "componentType": 5126,
      "count": 8730,
      "max": [
        2.7677559852600098,
        9.1759185791015625,
        1.9838739633560181
      ],
      "min": [
        -2.6509249210357666,
        3.9475090503692627,
        -2.4105238914489746
      ],
      "type": "VEC3"
    },
    {
      "bufferView": 2,
      "byteOffset": 104760,
      "componentType": 5126,
      "count": 8730,
      "max": [
        0.99998635053634644,
        0.99944663047790527,
        0.99994921684265137
      ],
      "min": [
        -0.99969035387039185,
        -0.99970698356628418,
        -0.99913966655731201
      ],
      "type": "VEC3"
    },
    {
      "bufferView": 3,
      "componentType": 5126,
      "count": 8730,
      "max": [
        0.99903517961502075,
        0.99973911046981812,
        0.99977356195449829,
        1
      ],
      "min": [
        -0.99956917762756348,
        -0.99990880489349365,
        -0.99986487627029419,
        -1
      ],
      "type": "VEC4"
    },
    {
      "bufferView": 1,
      "componentType": 5126,
      "count": 8730,
      "max": [
        0.99994897842407227,
        0.99314200878143311
      ],
      "min": [
        3.9999999899009708e-06,
        4.3000000005122274e-05
      ],
      "type": "VEC2"
    },
    {
      "bufferView": 0,
      "componentType": 5125,
      "count": 45453,
      "max": [
        8729
      ],
      "min": [
        0
      ],
      "type": "SCALAR"
    }
  ],
  "asset": {
    "extras": {
      "author": "syllag (https://sketchfab.com/syllag)",
      "license": "CC-BY-SA-4.0 (http://creativecommons.org/licenses/by-sa/4.0/)",
      "source": "https://sketchfab.com/models/381a0687f731417fa36ec968799a416a",
      "title": "Boy with Buffalo"
    },
    "generator": "Sketchfab-3.19.8",
    "version": "2.0"
  },
  "bufferViews": [
    {
      "buffer": 0,
      "byteLength": 181812,
      "byteOffset": 0,
      "name": "floatBufferViews",
      "target": 34963
    },
    {
      "buffer": 0,
      "byteLength": 69840,
      "byteOffset": 181812,
      "byteStride": 8,
      "name": "floatBufferViews",
      "target": 34962
    },
    {
      "buffer": 0,
      "byteLength": 209520,
      "byteOffset": 251652,
      "byteStride": 12,
      "name": "floatBufferViews",
      "target": 34962
    },
    {
      "buffer": 0,
      "byteLength": 139680,
      "byteOffset": 461172,
      "byteStride": 16,
      "name": "floatBufferViews",
      "target": 34962
    }
  ],
  "buffers": [
    {
      "byteLength": 600852,
      "uri": "scene.bin"
    }
  ],
  "images": [
    {
      "uri": "textures/boy_buffalo_3_all-hh-15-4096_baseColor.png"
    }
  ],
  "materials": [
    {
      "doubleSided": true,
      "emissiveFactor": [
        0,
        0,
        0
      ],
      "name": "boy_buffalo_3_all-hh-15-4096",
      "pbrMetallicRoughness": {
        "baseColorFactor": [
          1,
          1,
          1,
          1
        ],
        "baseColorTexture": {
          "index": 0,
          "texCoord": 0
        },
        "metallicFactor": 0,
        "roughnessFactor": 1
      }
    }
  ],
  "meshes": [
    {
      "primitives": [
        {
          "attributes": {
            "NORMAL": 1,
            "POSITION": 0,
            "TANGENT": 2,
            "TEXCOORD_0": 3
          },
          "indices": 4,
          "material": 0,
          "mode": 4
        }
      ]
    }
  ],
  "nodes": [
    {
      "children": [
        1
      ],
      "name": "RootNode (gltf orientation matrix)",
      "rotation": [
        -0.70710678118654746,
        -0,
        -0,
        0.70710678118654757
      ]
    },
    {
      "children": [
        2
      ],
      "matrix": [
        0.67909282445907593,
        0.11359045654535294,
        -0.72521042823791504,
        0,
        -0.73366636037826538,
        0.07299351692199707,
        -0.67557799816131592,
        0,
        -0.023803556337952614,
        0.99084264039993286,
        0.13290686905384064,
        0,
        5.011439323425293,
        6.361241340637207,
        5.0253782272338867,
        1
      ],
      "name": "RootNode (model correction matrix)"
    },
    {
      "children": [
        3
      ],
      "name": "boy_buffalo_3_all-hh-15-4096.obj.cleaner.materialmerger.gles"
    },
    {
      "mesh": 0,
      "name": ""
    }
  ],
  "samplers": [
    {
      "magFilter": 9729,
      "minFilter": 9987,
      "wrapS": 10497,
      "wrapT": 10497
    }
  ],
  "scene": 0,
  "scenes": [
    {
      "name": "OSG_Scene",
      "nodes": [
        0
      ]
    }
  ],
  "textures": [
    {
      "sampler": 0,
      "source": 0
    }
  ]
}

